<svg id="visual" viewBox="0 0 960 540" width="960" height="540" xmlns="http://www.w3.org/2000/svg" xmlns:xlink="http://www.w3.org/1999/xlink" version="1.1"><path d="M0 426L22.8 425C45.7 424 91.3 422 137 419.7C182.7 417.3 228.3 414.7 274 414.3C319.7 414 365.3 416 411.2 407.7C457 399.3 503 380.7 548.8 372.8C594.7 365 640.3 368 686 377C731.7 386 777.3 401 823 409.3C868.7 417.7 914.3 419.3 937.2 420.2L960 421L960 541L937.2 541C914.3 541 868.7 541 823 541C777.3 541 731.7 541 686 541C640.3 541 594.7 541 548.8 541C503 541 457 541 411.2 541C365.3 541 319.7 541 274 541C228.3 541 182.7 541 137 541C91.3 541 45.7 541 22.8 541L0 541Z" fill="#ffe4c4"></path><path d="M0 428L22.8 427C45.7 426 91.3 424 137 425.8C182.7 427.7 228.3 433.3 274 431.2C319.7 429 365.3 419 411.2 418.2C457 417.3 503 425.7 548.8 428.8C594.7 432 640.3 430 686 425.7C731.7 421.3 777.3 414.7 823 408.8C868.7 403 914.3 398 937.2 395.5L960 393L960 541L937.2 541C914.3 541 868.7 541 823 541C777.3 541 731.7 541 686 541C640.3 541 594.7 541 548.8 541C503 541 457 541 411.2 541C365.3 541 319.7 541 274 541C228.3 541 182.7 541 137 541C91.3 541 45.7 541 22.8 541L0 541Z" fill="#f7d9b4"></path><path d="M0 448L22.8 447.2C45.7 446.3 91.3 444.7 137 448.5C182.7 452.3 228.3 461.7 274 458.3C319.7 455 365.3 439 411.2 436.2C457 433.3 503 443.7 548.8 449.8C594.7 456 640.3 458 686 459C731.7 460 777.3 460 823 458.2C868.7 456.3 914.3 452.7 937.2 450.8L960 449L960 541L937.2 541C914.3 541 868.7 541 823 541C777.3 541 731.7 541 686 541C640.3 541 594.7 541 548.8 541C503 541 457 541 411.2 541C365.3 541 319.7 541 274 541C228.3 541 182.7 541 137 541C91.3 541 45.7 541 22.8 541L0 541Z" fill="#efcea5"></path><path d="M0 486L22.8 487.7C45.7 489.3 91.3 492.7 137 494C182.7 495.3 228.3 494.7 274 489.5C319.7 484.3 365.3 474.7 411.2 472.8C457 471 503 477 548.8 478.2C594.7 479.3 640.3 475.7 686 473.7C731.7 471.7 777.3 471.3 823 472.8C868.7 474.3 914.3 477.7 937.2 479.3L960 481L960 541L937.2 541C914.3 541 868.7 541 823 541C777.3 541 731.7 541 686 541C640.3 541 594.7 541 548.8 541C503 541 457 541 411.2 541C365.3 541 319.7 541 274 541C228.3 541 182.7 541 137 541C91.3 541 45.7 541 22.8 541L0 541Z" fill="#e7c396"></path><path d="M0 509L22.8 508.5C45.7 508 91.3 507 137 505.3C182.7 503.7 228.3 501.3 274 503.3C319.7 505.3 365.3 511.7 411.2 515.2C457 518.7 503 519.3 548.8 517.5C594.7 515.7 640.3 511.3 686 510C731.7 508.7 777.3 510.3 823 508.8C868.7 507.3 914.3 502.7 937.2 500.3L960 498L960 541L937.2 541C914.3 541 868.7 541 823 541C777.3 541 731.7 541 686 541C640.3 541 594.7 541 548.8 541C503 541 457 541 411.2 541C365.3 541 319.7 541 274 541C228.3 541 182.7 541 137 541C91.3 541 45.7 541 22.8 541L0 541Z" fill="#deb887"></path></svg>