<svg id="visual" viewBox="0 0 900 600" width="900" height="600" xmlns="http://www.w3.org/2000/svg" xmlns:xlink="http://www.w3.org/1999/xlink" version="1.1"><path d="M0 507L18.8 512.8C37.7 518.7 75.3 530.3 112.8 532.2C150.3 534 187.7 526 225.2 521C262.7 516 300.3 514 337.8 505.8C375.3 497.7 412.7 483.3 450.2 477.8C487.7 472.3 525.3 475.7 562.8 485.7C600.3 495.7 637.7 512.3 675.2 521.7C712.7 531 750.3 533 787.8 531C825.3 529 862.7 523 881.3 520L900 517L900 601L881.3 601C862.7 601 825.3 601 787.8 601C750.3 601 712.7 601 675.2 601C637.7 601 600.3 601 562.8 601C525.3 601 487.7 601 450.2 601C412.7 601 375.3 601 337.8 601C300.3 601 262.7 601 225.2 601C187.7 601 150.3 601 112.8 601C75.3 601 37.7 601 18.8 601L0 601Z" fill="#dbc3a4" stroke-linecap="round" stroke-linejoin="miter"></path></svg>