<svg id="visual" viewBox="0 0 900 600" width="900" height="600" xmlns="http://www.w3.org/2000/svg" xmlns:xlink="http://www.w3.org/1999/xlink" version="1.1"><path d="M0 519L13.7 517.7C27.3 516.3 54.7 513.7 82 506.5C109.3 499.3 136.7 487.7 163.8 484.3C191 481 218 486 245.2 490.7C272.3 495.3 299.7 499.7 327 509.7C354.3 519.7 381.7 535.3 409 539.8C436.3 544.3 463.7 537.7 491 531C518.3 524.3 545.7 517.7 573 514.3C600.3 511 627.7 511 654.8 516.2C682 521.3 709 531.7 736.2 527.2C763.3 522.7 790.7 503.3 818 498.3C845.3 493.3 872.7 502.7 886.3 507.3L900 512L900 601L886.3 601C872.7 601 845.3 601 818 601C790.7 601 763.3 601 736.2 601C709 601 682 601 654.8 601C627.7 601 600.3 601 573 601C545.7 601 518.3 601 491 601C463.7 601 436.3 601 409 601C381.7 601 354.3 601 327 601C299.7 601 272.3 601 245.2 601C218 601 191 601 163.8 601C136.7 601 109.3 601 82 601C54.7 601 27.3 601 13.7 601L0 601Z" fill="#f3f38e" stroke-linecap="round" stroke-linejoin="miter"></path></svg>